name Run_300 02_newCOP3_v24.mot
datacolumns 19
datarows 64
range 0.12 0.183
DataType=double
version=3
OpenSimVersion=4.3-2021-08-27-4bc7ad9
endheader
time	R_ground_force_vx	R_ground_force_vy	R_ground_force_vz	R_ground_force_px	R_ground_force_py	R_ground_force_pz	L_ground_force_vx	L_ground_force_vy	L_ground_force_vz	L_ground_force_px	L_ground_force_py	L_ground_force_pz	R_ground_torque_x	R_ground_torque_y	R_ground_torque_z	L_ground_torque_x	L_ground_torque_y	L_ground_torque_z
0.12	0	0	0	0	0	0	19.154785	695.0842290000001	4.570758	0.908818	0	-0.373785	0	0	0	0	-9.462368	0
0.121	0	0	0	0	0	0	12.313201	703.407288	6.135689	0.908274	0	-0.373738	0	0	0	0	-8.885591	0
0.122	0	0	0	0	0	0	5.23756	712.031616	7.706605	0.907728	0	-0.373721	0	0	0	0	-8.306255	0
0.123	0	0	0	0	0	0	-2.039839	720.924133	9.25895	0.90718	0	-0.373733	0	0	0	0	-7.727348	0
0.124	0	0	0	0	0	0	-9.490826	730.058044	10.769921	0.90663	0	-0.373771	0	0	0	0	-7.151861	0
0.125	0	0	0	0	0	0	-17.08893	739.410095	12.218863	0.906075	0	-0.373834	0	0	0	0	-6.582765	0
0.126	0	0	0	0	0	0	-24.807869	748.959106	13.587663	0.905514	0	-0.373919	0	0	0	0	-6.022974	0
0.127	0	0	0	0	0	0	-32.620632	758.685242	14.861094	0.904944	0	-0.374025	0	0	0	0	-5.475317	0
0.128	0	0	0	0	0	0	-40.498924	768.569702	16.027103	0.9043639999999999	0	-0.37415	0	0	0	0	-4.942511	0
0.129	0	0	0	0	0	0	-48.412876	778.5950319999999	17.076986	0.903771	0	-0.374292	0	0	0	0	-4.427132	0
0.13	0	0	0	0	0	0	-56.330933	788.745239	18.00548	0.903162	0	-0.374448	0	0	0	0	-3.931591	0
0.131	0	0	0	0	0	0	-64.21991	799.006531	18.81074	0.902533	0	-0.374617	0	0	0	0	-3.458115	0
0.132	0	0	0	0	0	0	-72.045158	809.367432	19.494223	0.901882	0	-0.374796	0	0	0	0	-3.008723	0
0.133	0	0	0	0	0	0	-79.770844	819.819763	20.060482	0.901206	0	-0.374984	0	0	0	0	-2.585216	0
0.134	0	0	0	0	0	0	-87.36035200000001	830.358521	20.51689	0.9005	0	-0.375178	0	0	0	0	-2.189155	0
0.135	0	0	0	0	0	0	-94.776718	840.982727	20.873291	0.899763	0	-0.375377	0	0	0	0	-1.821858	0
0.136	0	0	0	0	0	0	-101.983192	851.695129	21.141617	0.89899	0	-0.375579	0	0	0	0	-1.48439	0
0.137	0	0	0	0	0	0	-108.943787	862.502502	21.335466	0.8981789999999999	0	-0.375783	0	0	0	0	-1.177559	0
0.138	0	0	0	0	0	0	-115.623863	873.415222	21.469677	0.897327	0	-0.375986	0	0	0	0	-0.901914	0
0.139	0	0	0	0	0	0	-121.990738	884.447083	21.5599	0.8964299999999999	0	-0.376187	0	0	0	0	-0.657747	0
0.14	0	0	0	0	0	0	-128.014206	895.614624	21.622179	0.895488	0	-0.376384	0	0	0	0	-0.445098	0
0.141	0	0	0	0	0	0	-133.667068	906.936523	21.672577	0.894497	0	-0.376578	0	0	0	0	-0.263764	0
0.142	0	0	0	0	0	0	-138.925598	918.4328	21.726807	0.8934569999999999	0	-0.376765	0	0	0	0	-0.113303	0
0.143	0	0	0	0	0	0	-143.769821	930.12384	21.799938	0.892365	0	-0.376946	0	0	0	-0	0.006949	-0
0.144	0	0	0	0	0	0	-148.183868	942.029907	21.906124	0.89122	0	-0.377119	0	0	0	-0	0.09786599999999999	-0
0.145	0	0	0	0	0	0	-152.156158	954.169861	22.058382	0.890023	0	-0.377284	0	0	0	-0	0.160518	-0
0.146	0	0	0	0	0	0	-155.679428	966.560486	22.268425	0.888772	0	-0.37744	0	0	0	-0	0.196152	-0
0.147	0	0	0	0	0	0	-158.750809	979.216003	22.546535	0.887468	0	-0.377586	0	0	0	-0	0.206176	-0
0.148	0	0	0	0	0	0	-161.371735	992.146973	22.901474	0.886111	0	-0.377723	0	0	0	-0	0.19214	-0
0.149	0	0	0	0	0	0	-163.547836	1005.360229	23.340431	0.884702	0	-0.377849	0	0	0	-0	0.155716	-0
0.15	0	0	0	0	0	0	-165.288696	1018.858154	23.868999	0.883242	0	-0.377965	0	0	0	-0	0.098675	-0
0.151	0	0	0	0	0	0	-166.607635	1032.638672	24.49118	0.881732	0	-0.378071	0	0	0	-0	0.022874	-0
0.152	0	0	0	0	0	0	-167.521362	1046.69458	25.209402	0.880175	0	-0.378167	0	0	0	0	-0.06977	0
0.153	0	0	0	0	0	0	-168.049667	1061.01416	26.024557	0.878572	0	-0.378253	0	0	0	0	-0.177299	0
0.154	0	0	0	0	0	0	-168.214996	1075.580566	26.936039	0.876924	0	-0.378329	0	0	0	0	-0.29773	0
0.155	0	0	0	0	0	0	-168.042038	1090.372559	27.941803	0.875235	0	-0.378396	0	0	0	0	-0.429076	0
0.156	0	0	0	0	0	0	-167.557236	1105.364258	29.038422	0.873507	0	-0.378454	0	0	0	0	-0.569364	0
0.157	0	0	0	0	0	0	-166.788376	1120.525757	30.221144	0.871742	0	-0.378503	0	0	0	0	-0.716651	0
0.158	0	0	0	0	0	0	-165.764038	1135.823364	31.483971	0.869942	0	-0.378545	0	0	0	0	-0.8690369999999999	0
0.159	0	0	0	0	0	0	-164.513123	1151.220215	32.819729	0.868111	0	-0.37858	0	0	0	0	-1.024687	0
0.16	0	0	0	0	0	0	-163.064377	1166.676636	34.220146	0.86625	0	-0.378608	0	0	0	0	-1.181835	0
0.161	0	0	0	0	0	0	-161.445923	1182.151123	35.675968	0.864362	0	-0.37863	0	0	0	0	-1.338802	0
0.162	0	0	0	0	0	0	-159.684799	1197.600342	37.177032	0.86245	0	-0.378646	0	0	0	0	-1.494004	0
0.163	0	0	0	0	0	0	-157.80661	1212.980347	38.712425	0.8605159999999999	0	-0.378658	0	0	0	0	-1.645963	0
0.164	0	0	0	0	0	0	-155.835098	1228.246948	40.270576	0.858562	0	-0.378667	0	0	0	0	-1.79331	0
0.165	0	0	0	0	0	0	-153.791901	1243.356079	41.839439	0.856589	0	-0.378671	0	0	0	0	-1.934799	0
0.166	0	0	0	0	0	0	-151.69635	1258.265137	43.406628	0.8546010000000001	0	-0.378674	0	0	0	0	-2.069303	0
0.167	0	0	0	0	0	0	-149.56517	1272.932983	44.959614	0.852599	0	-0.378674	0	0	0	0	-2.195826	0
0.168	0	0	0	0	0	0	-147.412567	1287.320679	46.485886	0.850584	0	-0.378672	0	0	0	0	-2.313498	0
0.169	0	0	0	0	0	0	-145.250061	1301.391602	47.973175	0.848559	0	-0.37867	0	0	0	0	-2.421581	0
0.17	0	0	0	0	0	0	-143.086609	1315.112671	49.40963	0.8465240000000001	0	-0.378667	0	0	0	0	-2.519465	0
0.171	0	0	0	0	0	0	-140.92868	1328.453613	50.784023	0.844481	0	-0.378664	0	0	0	0	-2.606672	0
0.172	0	0	0	0	0	0	-138.780472	1341.388184	52.085957	0.84243	0	-0.378662	0	0	0	0	-2.682846	0
0.173	0	0	0	0	0	0	-136.644119	1353.893677	53.306042	0.840373	0	-0.378661	0	0	0	0	-2.747756	0
0.174	0	0	0	0	0	0	-134.519897	1365.951416	54.436085	0.838311	0	-0.378661	0	0	0	0	-2.80129	0
0.175	0	0	0	0	0	0	-132.406601	1377.546509	55.469257	0.836244	0	-0.378662	0	0	0	0	-2.843447	0
0.176	0	0	0	0	0	0	-130.301788	1388.668335	56.400234	0.8341730000000001	0	-0.378665	0	0	0	0	-2.874336	0
0.177	0	0	0	0	0	0	-128.202011	1399.309692	57.225319	0.832098	0	-0.37867	0	0	0	0	-2.894165	0
0.178	0	0	0	0	0	0	-126.103233	1409.467285	57.942547	0.83002	0	-0.378677	0	0	0	0	-2.903237	0
0.179	0	0	0	0	0	0	-124.000946	1419.141479	58.551739	0.827939	0	-0.378687	0	0	0	0	-2.901941	0
0.18	0	0	0	0	0	0	-121.890472	1428.335571	59.054546	0.825856	0	-0.378698	0	0	0	0	-2.890744	0
0.181	0	0	0	0	0	0	-119.767113	1437.056274	59.454437	0.823771	0	-0.378712	0	0	0	0	-2.870185	0
0.182	0	0	0	0	0	0	-117.626289	1445.3125	59.756657	0.8216830000000001	0	-0.378728	0	0	0	0	-2.840862	0
0.183	0	0	0	0	0	0	-115.463684	1453.115723	59.968147	0.819593	0	-0.378747	0	0	0	0	-2.803428	0
